<?xml version="1.0" encoding="utf-8"?>
<!-- Generator: Adobe Illustrator 23.0.4, SVG Export Plug-In . SVG Version: 6.00 Build 0)  -->
<svg version="1.1" id="Calque_1" xmlns="http://www.w3.org/2000/svg" xmlns:xlink="http://www.w3.org/1999/xlink" x="0px" y="0px"
	 viewBox="0 0 512 512" style="enable-background:new 0 0 512 512;" xml:space="preserve">
<style type="text/css">
	.st0{fill:#201D1E;}
</style>
<g>
	<g>
		<path class="st0" d="M-0.5,62.3h193.2c45.2,0,81.2,11,108,32.9c26.8,22,40.2,49.8,40.2,83.6c0,50.3-29.4,84.3-88.1,102
			c30,4.2,53.8,16.7,71.6,37.4c17.7,20.7,26.6,45,26.6,72.9c0,35.5-13,63.7-39,84.6c-26,20.9-62.2,31.4-108.6,31.4h-204V62.3z
			 M107.8,144.7V241h70.9c15.6,0,28.2-4,37.7-12c9.5-8,14.3-20,14.3-35.8c0-15.8-4.8-27.9-14.3-36.1c-9.5-8.2-22.1-12.4-37.7-12.4
			H107.8z M107.8,424.7h81.7c14.8,0,27-4.4,36.7-13.3c9.7-8.9,14.6-21.1,14.6-36.7c0-15.6-4.7-28.1-13.9-37.4
			c-9.3-9.3-21.3-13.9-36.1-13.9h-83V424.7z"/>
	</g>
	<g>
		<path class="st0" d="M493.6,113c-12.3,12.3-27.2,18.4-45,18.4s-32.7-6.1-45-18.4c-12.3-12.2-18.4-27.3-18.4-45.3
			c0-17.9,6.1-33,18.4-45.3C415.9,10.1,430.9,4,448.7,4s32.7,6.1,45,18.4C505.9,34.6,512,49.7,512,67.7
			C512,85.6,505.9,100.7,493.6,113z"/>
	</g>
</g>
</svg>
