<?xml version="1.0" encoding="utf-8"?>
<!-- Generator: Adobe Illustrator 23.0.4, SVG Export Plug-In . SVG Version: 6.00 Build 0)  -->
<svg version="1.1" id="Calque_1" xmlns="http://www.w3.org/2000/svg" xmlns:xlink="http://www.w3.org/1999/xlink" x="0px" y="0px"
	 viewBox="0 0 73.63 72.26" style="enable-background:new 0 0 73.63 72.26;" xml:space="preserve">
<g>
	<path d="M0,8.38h27.75c6.49,0,11.66,1.58,15.52,4.73c3.85,3.16,5.78,7.16,5.78,12.01c0,7.22-4.22,12.1-12.65,14.65
		c4.31,0.61,7.73,2.4,10.28,5.37c2.55,2.97,3.82,6.46,3.82,10.47c0,5.1-1.87,9.15-5.6,12.15s-8.93,4.5-15.61,4.5H0V8.38z
		 M15.56,20.21v13.83h10.19c2.24,0,4.05-0.58,5.41-1.73c1.36-1.15,2.05-2.87,2.05-5.14c0-2.28-0.68-4-2.05-5.19
		c-1.37-1.18-3.17-1.77-5.41-1.77H15.56z M15.56,60.43H27.3c2.12,0,3.88-0.64,5.28-1.91c1.4-1.27,2.09-3.03,2.09-5.28
		c0-2.24-0.67-4.03-2-5.37c-1.34-1.33-3.06-2-5.19-2H15.56V60.43z"/>
</g>
<g>
	<path d="M70.99,15.65c-1.76,1.76-3.91,2.64-6.46,2.64s-4.7-0.88-6.46-2.64c-1.76-1.76-2.64-3.93-2.64-6.51
		c0-2.58,0.88-4.75,2.64-6.51C59.83,0.88,61.98,0,64.53,0s4.7,0.88,6.46,2.64c1.76,1.76,2.64,3.93,2.64,6.51
		C73.63,11.73,72.75,13.89,70.99,15.65z"/>
</g>
</svg>
